<svg width="11" height="18" viewBox="0 0 11 18" fill="none" xmlns="http://www.w3.org/2000/svg">
<path id="Vector" d="M7.01151 8.64365L0.287077 2.17897C0.101919 2.00139 6.03047e-05 1.76397 6.02726e-05 1.51081C6.02406e-05 1.25751 0.101919 1.02022 0.287077 0.842367L0.876308 0.276201C1.06117 0.0980624 1.3083 1.82792e-06 1.57164 1.77589e-06C1.83498 1.72386e-06 2.08181 0.0980621 2.26682 0.276201L10.2733 7.97296C10.4591 8.15138 10.5608 8.38979 10.5601 8.64323C10.5608 8.89779 10.4592 9.13592 10.2733 9.31448L2.27428 17.0038C2.08926 17.1819 1.84244 17.28 1.57895 17.28C1.3156 17.28 1.06878 17.1819 0.883618 17.0038L0.294531 16.4376C-0.0887908 16.0691 -0.0887908 15.4693 0.294531 15.1009L7.01151 8.64365Z" fill="#757575" fill-opacity="0.25"/>
</svg>
