<svg width="316" height="107" viewBox="0 0 316 107" fill="none" xmlns="http://www.w3.org/2000/svg">
<mask id="mask0_1_240" style="mask-type:luminance" maskUnits="userSpaceOnUse" x="0" y="0" width="316" height="107">
<path d="M304.71 106.422C308.445 105.301 312.209 104.139 316 102.938V103.084C312.372 104.234 308.769 105.346 305.192 106.422H304.71ZM279.758 106.422C291.53 103.486 303.608 100.188 316 96.4572V96.6033C303.808 100.273 291.922 103.523 280.328 106.423H279.758V106.422ZM245.964 106.422C268.087 102.172 291.391 96.8445 316 89.8162V89.9606C291.663 96.9102 268.603 102.196 246.698 106.421H245.964V106.422ZM195.285 106.422C231.634 101.579 271.617 95.0255 316 83.0202V83.1646C272.046 95.0509 232.406 101.593 196.339 106.422H195.285ZM124.057 106.422C136.935 104.688 150.351 103.155 164.364 101.554C208.432 96.5196 258.393 90.8098 316 76.0764V76.22C258.401 90.9493 208.445 96.6574 164.382 101.692C150.744 103.25 137.674 104.744 125.113 106.421H124.057V106.422ZM75.4765 106.422C103.677 99.2773 134.786 95.9231 169.713 92.1653C212.267 87.587 260.486 82.3958 316 68.9907V69.1343C260.494 82.5352 212.279 87.7256 169.728 92.3039C135.034 96.0372 104.109 99.3716 76.0613 106.423H75.4765V106.422ZM49.9186 106.422C85.6878 91.8535 126.492 87.7133 174.785 82.8282C215.92 78.6667 262.49 73.953 316 61.772V61.9148C262.497 74.0916 215.931 78.8053 174.799 82.966C126.671 87.8348 85.9823 91.9634 50.3057 106.422H49.9186ZM34.3768 106.422C74.6292 83.5174 121.607 79.04 179.639 73.5304C219.43 69.7521 264.422 65.4782 316 54.4279V54.5707C264.427 65.6177 219.442 69.8916 179.653 73.6691C121.751 79.1663 74.8589 83.6347 34.6729 106.423H34.3768V106.422ZM23.9407 106.422C67.1712 74.698 118.499 70.118 184.318 64.263C222.824 60.8383 266.293 56.9689 315.999 46.9631V47.1051C266.299 57.1076 222.834 60.9762 184.331 64.4017C118.626 70.246 67.3681 74.8202 24.1909 106.423H23.9407V106.422ZM16.5484 106.422C61.886 65.5922 116.461 61.041 188.857 55.0203C226.124 51.9213 268.117 48.4252 316 39.3851V39.5271C268.122 48.5647 226.133 52.06 188.869 55.1589C116.571 61.1723 62.0516 65.7087 16.7575 106.422H16.5484ZM11.1458 106.422C58.0327 56.306 115.125 51.8614 193.278 45.7964C229.343 42.9977 269.897 39.8479 316 31.6996V31.8416C269.901 39.9874 229.352 43.1364 193.29 45.935C115.24 51.9919 58.2074 56.4405 11.3648 106.422H11.1458ZM7.12689 106.422C55.1817 46.8909 114.276 42.608 197.602 36.5889C232.495 34.0684 271.638 31.2402 316 23.9165V24.0576C271.643 31.3796 232.503 34.207 197.612 36.7276C114.391 42.7393 55.3548 47.0378 7.34338 106.422H7.12689ZM4.12415 106.422C53.0705 37.393 113.787 33.2988 201.844 27.3929C235.587 25.13 273.349 22.5947 316 16.0317V16.172C273.353 22.7326 235.594 25.2679 201.854 27.5307C113.895 33.43 53.2305 37.5333 4.32266 106.421H4.12415V106.422ZM1.88504 106.422C51.5171 27.8302 113.566 23.9477 206.016 18.2076C238.629 16.1826 275.029 13.9205 316 8.05981V8.20013C275.033 14.0592 238.637 16.3213 206.025 18.3462C113.672 24.0806 51.6738 27.9763 2.07697 106.422H1.88504ZM0.227448 106.422C50.3902 18.2002 113.548 14.5622 210.128 9.02962C241.626 7.22538 276.683 5.21519 316 0.000183105V0.14048C276.686 5.35384 241.633 7.36404 210.137 9.16828C113.647 14.6959 50.5353 18.3372 0.405426 106.422H0.227448Z" fill="white"/>
</mask>
<g mask="url(#mask0_1_240)">
<path d="M0.227509 106.422L316 106.422V-0.000221252L0.227509 -0.000221252V106.422Z" fill="white"/>
</g>
</svg>
