<svg width="44" height="32" viewBox="0 0 44 32" fill="none" xmlns="http://www.w3.org/2000/svg">
<mask id="mask0_4_2" style="mask-type:alpha" maskUnits="userSpaceOnUse" x="0" y="0" width="44" height="32">
<rect x="0.5" y="0.5" width="43" height="31" rx="5.5" fill="#3C964C" stroke="#3C964C"/>
</mask>
<g mask="url(#mask0_4_2)">
<path d="M42.7215 -3.30827L10.3546 -2.52642C10.3546 -2.52642 10.3545 10.0575 0.977783 16.3494C9.14468 21.2432 10.3546 34.5262 10.3546 34.5262L42.7215 35.3081C48.3372 35.4437 52.963 30.9284 52.963 25.311V6.68881C52.963 1.07141 48.3373 -3.44393 42.7215 -3.30827Z" fill="white"/>
</g>
<path d="M32.1878 13.0658C32.1569 12.6854 31.8367 12.3923 31.452 12.3923H21.1884C20.8036 12.3923 20.4834 12.6854 20.4526 13.0658L19.8049 21.0598C19.7358 21.9119 20.4144 22.6412 21.2765 22.6412H31.3639C32.2259 22.6412 32.9045 21.9119 32.8355 21.0598L32.1878 13.0658Z" stroke="#3C964C" stroke-width="1.6" stroke-linecap="round" stroke-linejoin="round"/>
<path d="M23.3675 14.5886V10.9282C23.3675 9.31102 24.6895 8 26.3202 8C27.9509 8 29.2728 9.31102 29.2728 10.9282V14.5886" stroke="#3C964C" stroke-width="1.6" stroke-linecap="round" stroke-linejoin="round"/>
</svg>
