<svg width="588" height="324" viewBox="0 0 588 324" fill="none" xmlns="http://www.w3.org/2000/svg">
<path d="M103.095 183.433C103.095 211.867 79.9655 234.981 51.5473 234.981C44.6444 234.981 38.0553 233.621 32.034 231.141C13.2529 223.431 0 204.964 0 183.433C0 155.015 23.129 131.886 51.5473 131.886C63.9634 131.886 75.3636 136.309 84.2835 143.645C95.7584 153.118 103.095 167.431 103.095 183.433Z" fill="#3C964C"/>
<path d="M103.095 183.433C103.095 211.867 79.9655 234.981 51.5473 234.981C44.6444 234.981 38.0553 233.621 32.034 231.141C13.2529 223.431 0 204.964 0 183.433C0 155.015 23.129 131.886 51.5473 131.886C63.9634 131.886 75.3636 136.309 84.2835 143.645C95.7584 153.118 103.095 167.431 103.095 183.433Z" fill="#3C964C"/>
<path d="M198.933 185.507C154.112 214.815 125.749 264.295 123.086 317.878C122.937 320.978 120.377 323.404 117.252 323.404H22.3877C19.099 323.404 16.4354 320.679 16.5246 317.369C17.3133 290.892 21.4502 265.523 28.9203 241.517C29.9024 238.372 33.1762 236.634 36.3309 237.548C42.5064 239.33 49.1135 240.079 55.9438 239.57C82.9374 237.548 104.901 215.803 107.297 188.667C108.815 171.4 102.521 155.556 91.5683 144.309C89.2915 141.973 89.3064 138.259 91.5831 135.922C107.297 119.718 125.258 105.327 145.347 92.837C148.175 91.0998 151.82 92.0732 153.472 94.9336L200.897 177.6C202.475 180.37 201.537 183.8 198.933 185.507Z" fill="black"/>
<path d="M564.912 317.369C565.002 320.664 562.339 323.404 559.017 323.404H463.624C460.497 323.404 457.923 320.978 457.774 317.878C455.096 264.299 426.579 214.822 381.516 185.516C378.853 183.779 377.97 180.305 379.541 177.595C389.759 159.865 381.411 174.33 427.223 94.934C427.223 94.934 427.223 94.919 427.238 94.919C428.883 92.0738 432.549 91.1004 435.391 92.8375C455.889 105.506 474.156 120.122 490.105 136.609C492.289 138.855 492.409 142.404 490.33 144.755C480.829 155.462 475.204 169.673 475.623 185.187C476.416 214.597 499.336 239.201 528.601 241.941C534.81 242.525 540.854 242.121 546.569 240.863C549.621 240.204 552.629 242.061 553.526 245.071C560.364 268.012 564.164 292.182 564.912 317.369Z" fill="black"/>
<path d="M587.934 183.786C587.934 207.901 572.037 228.386 550.178 235.288C545.053 236.917 539.599 237.784 533.951 237.784C504.189 237.784 479.969 213.564 479.969 183.786C479.969 168.292 486.528 154.307 497.017 144.461C506.684 135.361 519.683 129.803 533.951 129.803C563.714 129.803 587.934 154.023 587.934 183.786Z" fill="#3C964C"/>
<path d="M422.244 92.0873L374.704 174.49C373.121 177.255 369.687 178.286 366.925 176.866C343.2 164.714 317.564 158.541 290.718 158.541C263.872 158.541 238.236 164.714 214.511 176.866C211.734 178.286 208.314 177.255 206.732 174.49C162.283 97.4383 174.078 117.871 159.192 92.0873C157.535 89.2324 158.565 85.5704 161.461 83.9711C183.29 72.2079 205.761 63.5088 228.695 57.9336C232.01 57.1264 235.309 59.2339 235.996 62.597C241.162 88.1264 263.738 107.378 290.718 107.378C317.698 107.378 340.273 88.1264 345.439 62.597C346.126 59.2489 349.411 57.1414 352.741 57.9336C375.674 63.5088 398.145 72.2079 419.974 83.9711C422.871 85.5704 423.901 89.2324 422.244 92.0873Z" fill="black"/>
<path d="M342.7 51.3979C342.7 52.7725 342.64 54.147 342.536 55.4918C340.444 81.9378 318.271 102.811 291.302 102.811C264.333 102.811 242.16 81.9378 240.069 55.4918C239.964 54.147 239.904 52.7725 239.904 51.3979C239.904 23.0543 262.959 0 291.302 0C319.646 0 342.7 23.0543 342.7 51.3979Z" fill="#3C964C"/>
<path d="M342.7 51.3979C342.7 52.7725 342.64 54.147 342.536 55.4918C340.444 81.9378 318.271 102.811 291.302 102.811C264.333 102.811 242.16 81.9378 240.069 55.4918C239.964 54.147 239.904 52.7725 239.904 51.3979C239.904 23.0543 262.959 0 291.302 0C319.646 0 342.7 23.0543 342.7 51.3979Z" fill="#3C964C"/>
<path d="M357.738 220.502C389.817 241.569 410.241 276.278 412.811 314.707C413.065 318.502 416.263 321.475 420.103 321.475C424.331 321.475 427.693 317.904 427.424 313.691C424.675 269.256 402.711 231.977 365.358 207.982C366.837 213.659 363.221 219.232 357.738 220.502Z" fill="#3C964C"/>
<path d="M235.578 213.39C252.567 204.859 271.407 200.376 290.502 200.376C311.644 200.376 332.442 205.77 351.791 216.812C355.168 218.769 359.471 217.723 361.578 214.406C363.819 210.88 362.609 206.248 359.068 204.201C316.156 179.384 269.062 179.773 228.496 200.556C233.935 202.02 237.237 207.743 235.578 213.39Z" fill="#3C964C"/>
<path d="M219.113 202.289L219.128 202.304C219.562 202.05 219.98 201.781 220.413 201.542L219.113 202.289Z" fill="#3C964C"/>
<path d="M168.193 314.692C170.883 274.276 193.444 237.834 228.526 217.23C232.306 215.273 233.531 212.061 232.859 208.848C231.843 204.067 226.3 201.617 221.967 204.202C178.189 230.439 156.36 268.539 153.581 313.676C153.327 317.905 156.674 321.461 160.902 321.461C164.742 321.461 167.939 318.487 168.193 314.692Z" fill="#3C964C"/>
<path d="M31.9408 151.465C31.6419 152.262 31.7083 160.663 32.0404 161.161C32.1732 161.427 32.9369 161.692 33.7007 161.792L35.0621 161.991V163.917C35.0621 165.444 34.9625 165.876 34.564 165.876C33.8335 165.876 31.6751 167.005 30.4465 168.068C29.8488 168.566 28.9855 169.728 28.4874 170.658L27.5908 172.351V191.61V210.87L28.5538 212.63C29.6496 214.589 31.4759 216.216 33.3354 216.88C34.9957 217.478 66.9063 217.511 68.5002 216.913C70.4926 216.183 72.3853 214.522 73.4147 212.663L74.4108 210.87L74.5105 192.308C74.6101 171.554 74.6101 171.521 72.3521 168.865C71.2231 167.536 68.467 165.876 67.4376 165.876C67.0392 165.876 66.9396 165.444 66.9396 163.917V161.991L68.301 161.792C69.0647 161.692 69.8284 161.427 69.9613 161.161C70.2933 160.663 70.3597 152.262 70.0609 151.465C69.8617 151 67.9025 150.934 51.0008 150.934C34.0991 150.934 32.14 151 31.9408 151.465ZM67.2716 156.246V158.571H51.0008H34.73V156.246V153.922H51.0008H67.2716V156.246ZM63.619 164.847C63.619 168.167 63.951 168.865 65.6445 168.865C67.9025 168.865 70.3929 170.89 71.0903 173.314C71.3559 174.211 71.5884 175.074 71.5884 175.24C71.5884 175.373 62.324 175.506 51.0008 175.506H30.3801L30.6125 174.244C30.7454 173.58 31.011 172.65 31.2434 172.185C32.14 170.458 34.5972 168.865 36.3571 168.865C38.0506 168.865 38.3827 168.167 38.3827 164.847V161.891H51.0008H63.619V164.847ZM71.2563 190.78V203.066H50.8348H30.4133V190.78V178.494H50.8348H71.2563V190.78ZM71.3227 207.383C71.5884 210.239 70.2601 212.563 67.7697 213.725C66.5411 214.29 65.3125 214.356 51.0672 214.356C37.951 214.356 35.527 214.29 34.4644 213.858C31.974 212.796 30.845 211.135 30.5129 208.047L30.3137 206.055H50.7684H71.1899L71.3227 207.383Z" fill="white"/>
<path d="M51.2002 182.545C45.854 191.013 45.8873 190.913 46.8834 191.909C47.2155 192.241 47.9792 192.44 49.0418 192.44C49.9383 192.44 50.6689 192.54 50.6689 192.64C50.6689 192.739 49.6063 194.3 48.3113 196.093C45.6216 199.878 45.4224 200.841 47.3483 201.007C48.4773 201.074 48.5769 200.974 51.167 197.388C56.0482 190.581 55.9486 190.78 55.3177 189.784C55.1184 189.452 54.2883 189.219 52.9933 189.12L50.9677 188.954L52.7608 186.131C53.7238 184.571 54.6203 183.043 54.7532 182.711C55.1184 181.715 54.4211 180.818 53.3253 180.818C52.4952 180.818 52.1299 181.084 51.2002 182.545Z" fill="white"/>
<path d="M281.898 17.712C281.397 18.239 281.318 18.6343 281.318 20.4263C281.318 22.2974 281.397 22.6136 281.924 23.1143C282.451 23.615 282.846 23.6941 284.954 23.6941H287.379V24.7482C287.379 25.6705 287.3 25.8023 286.667 25.9341C280.606 27.199 277.101 28.7275 272.911 31.8635C266.771 36.5016 262.344 43.9068 261.263 51.312C260.789 54.7379 261.079 60.6936 261.896 63.7506C265.295 76.6635 276.627 85.7816 289.909 86.335C295.548 86.5722 300.002 85.6499 304.904 83.2517C310.49 80.4847 315.366 75.7148 318.291 70.1016C320.61 65.648 321.638 61.3788 321.638 56.1346C321.638 52.1816 321.348 50.2315 320.32 46.8847C317.184 36.7388 308.514 28.7275 298.21 26.4348C297.261 26.224 296.207 25.9868 295.891 25.9341C295.39 25.8023 295.285 25.6178 295.285 24.7482V23.6941H297.736C299.976 23.6941 300.266 23.6414 300.766 23.088C301.267 22.5609 301.346 22.1656 301.346 20.3736C301.346 18.5025 301.267 18.1863 300.74 17.6856C300.134 17.1058 300.002 17.1058 291.306 17.1058H282.451L281.898 17.712ZM294.916 30.5722C306.564 32.1797 315.577 41.5614 316.894 53.3938C318.265 65.8324 310.148 77.5859 297.841 80.959C294.89 81.7496 287.985 81.8023 285.139 81.0381C280.264 79.7204 276.864 77.7703 273.386 74.3181C268.194 69.1529 265.717 63.2499 265.69 56.1082C265.69 51.5491 266.481 48.3341 268.616 44.144C271.225 39.0315 275.283 35.1313 280.369 32.7858C285.113 30.5985 289.909 29.8607 294.916 30.5722Z" fill="white"/>
<path d="M289.276 37.213C288.697 37.8191 288.697 37.8981 288.697 48.3076V58.7697L289.355 59.4022C289.698 59.7711 290.304 60.061 290.673 60.061C291.042 60.061 294.81 58.7433 299.053 57.1621C307.223 54.0525 307.934 53.6572 307.934 52.1287C307.934 51.18 306.696 49.7833 305.826 49.7833C305.51 49.7833 302.637 50.7847 299.396 52.0233C296.181 53.2619 293.466 54.2633 293.361 54.2633C293.256 54.2633 293.177 50.5476 293.177 45.9885V37.6873L292.491 37.1603C291.516 36.396 290.014 36.4224 289.276 37.213Z" fill="white"/>
<path d="M306.854 26.3558C305.536 27.7789 305.72 28.0951 309.515 31.1784C311.386 32.7069 313.152 33.9718 313.442 33.9718C314.127 33.9718 315.366 32.4697 315.26 31.7582C315.181 31.152 308.619 25.5389 307.987 25.5389C307.776 25.5389 307.275 25.9078 306.854 26.3558Z" fill="white"/>
<path d="M524.47 152.615C519.89 154.516 515.893 156.379 515.66 156.728C514.535 158.203 515.311 160.182 517.213 160.881C517.678 161.036 520.899 159.872 526.255 157.66L534.559 154.206L547.637 159.639C554.855 162.627 560.87 165.188 561.025 165.305C561.181 165.46 555.282 168.06 547.909 171.126L534.559 176.636L521.831 171.358C514.846 168.448 508.792 165.926 508.365 165.77C507.705 165.499 507.86 165.343 509.529 164.606C512.129 163.481 512.828 162.782 512.828 161.269C512.828 159.872 511.702 158.785 510.305 158.785C509.878 158.785 507.356 159.716 504.678 160.842C500.72 162.511 499.672 163.093 498.974 164.179L498.081 165.499V183.233V200.968L498.974 202.287C499.75 203.49 501.38 204.228 516.32 210.475C529.398 215.908 533.162 217.344 534.559 217.344C535.956 217.344 539.721 215.908 552.798 210.475C572.473 202.248 571.037 203.374 571.037 196.389C571.037 192.275 570.96 191.693 570.261 190.995C569.369 190.102 568.011 189.986 566.924 190.762C566.303 191.227 566.148 191.926 565.993 195.302L565.799 199.299L556.097 203.296C550.78 205.547 544.339 208.186 541.816 209.234L537.276 211.135L537.353 196.195L537.47 181.215L540.109 180.09C541.583 179.469 542.864 178.965 542.941 178.965C543.019 178.965 543.097 182.923 543.097 187.774C543.097 192.663 543.252 196.816 543.407 197.048C543.562 197.281 544.106 197.708 544.571 197.941C546.124 198.756 547.327 197.863 550.237 193.905C551.712 191.887 552.954 190.218 552.992 190.218C553.07 190.218 553.885 190.645 554.777 191.189C556.951 192.43 558.736 192.469 559.551 191.305C560.055 190.568 560.172 188.938 560.172 181.099V171.746L563.082 170.543L565.993 169.34V176.869C565.993 183.893 566.031 184.436 566.769 185.174C567.778 186.183 569.252 186.183 570.261 185.174C570.999 184.436 571.037 183.893 571.037 174.929C571.037 165.731 570.999 165.46 570.145 164.179C569.33 162.976 567.778 162.239 552.798 155.991C539.759 150.558 535.956 149.122 534.559 149.122C533.24 149.122 530.795 149.976 524.47 152.615ZM530.989 180.944L531.843 181.293V196.195V211.135L527.302 209.234C524.78 208.186 518.377 205.547 513.022 203.296L503.32 199.299L503.204 184.32L503.126 169.34L516.592 174.967C524.043 178.072 530.485 180.75 530.989 180.944ZM555.127 179.547C555.127 182.651 555.049 185.174 555.01 185.174C554.933 185.174 554.312 184.902 553.652 184.591C551.983 183.738 550.703 184.203 549.306 186.066L548.142 187.657V182.185V176.753L551.363 175.356C553.109 174.618 554.661 173.997 554.855 173.958C555.01 173.92 555.127 176.442 555.127 179.547Z" fill="white"/>
<path d="M507.278 185.097C506.735 185.679 506.619 186.688 506.619 190.685C506.619 197.01 506.929 197.515 511.857 199.571C513.798 200.386 515.816 201.046 516.437 201.085C518.493 201.085 519.735 198.718 518.532 197.049C518.261 196.661 516.631 195.768 514.923 195.07L511.857 193.789L511.663 189.637C511.508 186.105 511.353 185.407 510.732 184.941C509.684 184.204 508.016 184.243 507.278 185.097Z" fill="white"/>
</svg>
