<svg width="104" height="103" viewBox="0 0 104 103" fill="none" xmlns="http://www.w3.org/2000/svg">
<path d="M103.7 51.3979C103.7 52.7725 103.64 54.147 103.536 55.4918C101.444 81.9378 79.2711 102.811 52.3022 102.811C25.3332 102.811 3.16042 81.9378 1.06865 55.4918C0.964063 54.147 0.904297 52.7725 0.904297 51.3979C0.904297 23.0543 23.9586 0 52.3022 0C80.6457 0 103.7 23.0543 103.7 51.3979Z" fill="#3C964C"/>
<path d="M103.7 51.3979C103.7 52.7725 103.64 54.147 103.536 55.4918C101.444 81.9378 79.2711 102.811 52.3022 102.811C25.3332 102.811 3.16042 81.9378 1.06865 55.4918C0.964063 54.147 0.904297 52.7725 0.904297 51.3979C0.904297 23.0543 23.9586 0 52.3022 0C80.6457 0 103.7 23.0543 103.7 51.3979Z" fill="#3C964C"/>
<path d="M42.8975 17.712C42.3968 18.239 42.3177 18.6343 42.3177 20.4263C42.3177 22.2974 42.3968 22.6136 42.9239 23.1143C43.4509 23.615 43.8462 23.6941 45.9544 23.6941H48.3789V24.7482C48.3789 25.6705 48.2999 25.8023 47.6674 25.9341C41.6062 27.199 38.1013 28.7275 33.9111 31.8635C27.7709 36.5016 23.3436 43.9068 22.2631 51.312C21.7888 54.7379 22.0787 60.6936 22.8956 63.7506C26.2951 76.6635 37.6269 85.7816 50.9088 86.335C56.5483 86.5722 61.002 85.6499 65.9036 83.2517C71.4905 80.4847 76.3658 75.7148 79.2909 70.1016C81.61 65.648 82.6378 61.3788 82.6378 56.1346C82.6378 52.1816 82.3479 50.2315 81.3201 46.8847C78.1841 36.7388 69.514 28.7275 59.21 26.4348C58.2613 26.224 57.2072 25.9868 56.8909 25.9341C56.3902 25.8023 56.2848 25.6178 56.2848 24.7482V23.6941H58.7356C60.9756 23.6941 61.2655 23.6414 61.7662 23.088C62.2669 22.5609 62.346 22.1656 62.346 20.3736C62.346 18.5025 62.2669 18.1863 61.7399 17.6856C61.1338 17.1058 61.002 17.1058 52.3055 17.1058H43.4509L42.8975 17.712ZM55.9159 30.5722C67.5639 32.1797 76.5766 41.5614 77.8942 53.3938C79.2646 65.8324 71.1479 77.5859 58.841 80.959C55.8895 81.7496 48.985 81.8023 46.1389 81.0381C41.2636 79.7204 37.8641 77.7703 34.3855 74.3181C29.194 69.1529 26.7168 63.2499 26.6904 56.1082C26.6904 51.5491 27.481 48.3341 29.6156 44.144C32.2246 39.0315 36.2829 35.1313 41.369 32.7858C46.1126 30.5985 50.9088 29.8607 55.9159 30.5722Z" fill="white"/>
<path d="M50.2763 37.213C49.6965 37.8191 49.6965 37.8981 49.6965 48.3076V58.7697L50.3554 59.4022C50.6979 59.7711 51.3041 60.061 51.673 60.061C52.0419 60.061 55.8104 58.7433 60.0532 57.1621C68.2227 54.0525 68.9342 53.6572 68.9342 52.1287C68.9342 51.18 67.6956 49.7833 66.826 49.7833C66.5097 49.7833 63.6372 50.7847 60.3958 52.0233C57.1808 53.2619 54.4664 54.2633 54.361 54.2633C54.2556 54.2633 54.1765 50.5476 54.1765 45.9885V37.6873L53.4914 37.1603C52.5163 36.396 51.0142 36.4224 50.2763 37.213Z" fill="white"/>
<path d="M67.8536 26.3558C66.5359 27.7789 66.7204 28.0951 70.5152 31.1784C72.3863 32.7069 74.1519 33.9718 74.4418 33.9718C75.127 33.9718 76.3656 32.4697 76.2601 31.7582C76.1811 31.152 69.6192 25.5389 68.9867 25.5389C68.7759 25.5389 68.2752 25.9078 67.8536 26.3558Z" fill="white"/>
</svg>
