<svg width="104" height="104" viewBox="0 0 104 104" fill="none" xmlns="http://www.w3.org/2000/svg">
<path d="M103.095 52.4335C103.095 80.8667 79.9655 103.981 51.5473 103.981C44.6444 103.981 38.0553 102.621 32.034 100.141C13.2529 92.4312 0 73.9638 0 52.4335C0 24.0153 23.129 0.88623 51.5473 0.88623C63.9634 0.88623 75.3636 5.30884 84.2835 12.645C95.7584 22.1177 103.095 36.4314 103.095 52.4335Z" fill="#3C964C"/>
<path d="M103.095 52.4335C103.095 80.8667 79.9655 103.981 51.5473 103.981C44.6444 103.981 38.0553 102.621 32.034 100.141C13.2529 92.4312 0 73.9638 0 52.4335C0 24.0153 23.129 0.88623 51.5473 0.88623C63.9634 0.88623 75.3636 5.30884 84.2835 12.645C95.7584 22.1177 103.095 36.4314 103.095 52.4335Z" fill="#3C964C"/>
<path d="M31.9408 20.4648C31.6419 21.2617 31.7083 29.6628 32.0404 30.1609C32.1732 30.4265 32.9369 30.6922 33.7007 30.7918L35.0621 30.991V32.9169C35.0621 34.4444 34.9625 34.8761 34.564 34.8761C33.8335 34.8761 31.6751 36.0051 30.4465 37.0676C29.8488 37.5657 28.9855 38.7279 28.4874 39.6577L27.5908 41.3512V60.6105V79.8698L28.5538 81.6297C29.6496 83.5888 31.4759 85.2159 33.3354 85.88C34.9957 86.4777 66.9063 86.5109 68.5002 85.9132C70.4926 85.1827 72.3853 83.5224 73.4147 81.6629L74.4108 79.8698L74.5105 61.3078C74.6101 40.5542 74.6101 40.521 72.3521 37.8646C71.2231 36.5364 68.467 34.8761 67.4376 34.8761C67.0392 34.8761 66.9396 34.4444 66.9396 32.9169V30.991L68.301 30.7918C69.0647 30.6922 69.8284 30.4265 69.9613 30.1609C70.2933 29.6628 70.3597 21.2617 70.0609 20.4648C69.8617 19.9999 67.9025 19.9335 51.0008 19.9335C34.0991 19.9335 32.14 19.9999 31.9408 20.4648ZM67.2716 25.2464V27.5708H51.0008H34.73V25.2464V22.922H51.0008H67.2716V25.2464ZM63.619 33.8467C63.619 37.1673 63.951 37.8646 65.6445 37.8646C67.9025 37.8646 70.3929 39.8901 71.0903 42.3141C71.3559 43.2107 71.5884 44.074 71.5884 44.2401C71.5884 44.3729 62.324 44.5057 51.0008 44.5057H30.3801L30.6125 43.2439C30.7454 42.5798 31.011 41.65 31.2434 41.1851C32.14 39.4585 34.5972 37.8646 36.3571 37.8646C38.0506 37.8646 38.3827 37.1673 38.3827 33.8467V30.8914H51.0008H63.619V33.8467ZM71.2563 59.7803V72.0664H50.8348H30.4133V59.7803V47.4942H50.8348H71.2563V59.7803ZM71.3227 76.3832C71.5884 79.2389 70.2601 81.5633 67.7697 82.7254C66.5411 83.2899 65.3125 83.3564 51.0672 83.3564C37.951 83.3564 35.527 83.2899 34.4644 82.8583C31.974 81.7957 30.845 80.1354 30.5129 77.0473L30.3137 75.0549H50.7684H71.1899L71.3227 76.3832Z" fill="white"/>
<path d="M51.2002 51.5451C45.854 60.0126 45.8873 59.913 46.8834 60.9091C47.2155 61.2412 47.9792 61.4404 49.0418 61.4404C49.9383 61.4404 50.6689 61.54 50.6689 61.6397C50.6689 61.7393 49.6063 63.2999 48.3113 65.093C45.6216 68.8785 45.4224 69.8415 47.3483 70.0075C48.4773 70.0739 48.5769 69.9743 51.167 66.3881C56.0482 59.5809 55.9486 59.7801 55.3177 58.784C55.1184 58.4519 54.2883 58.2195 52.9933 58.1198L50.9677 57.9538L52.7608 55.1313C53.7238 53.5707 54.6203 52.0432 54.7532 51.7112C55.1184 50.715 54.4211 49.8184 53.3253 49.8184C52.4952 49.8184 52.1299 50.0841 51.2002 51.5451Z" fill="white"/>
</svg>
