<svg width="220" height="220" viewBox="0 0 220 220" fill="none" xmlns="http://www.w3.org/2000/svg">
<circle cx="2" cy="2" r="2" fill="#D9D9D9"/>
<circle cx="2" cy="14" r="2" fill="#D9D9D9"/>
<circle cx="2" cy="26" r="2" fill="#D9D9D9"/>
<circle cx="2" cy="38" r="2" fill="#D9D9D9"/>
<circle cx="2" cy="50" r="2" fill="#D9D9D9"/>
<circle cx="2" cy="62" r="2" fill="#D9D9D9"/>
<circle cx="2" cy="74" r="2" fill="#D9D9D9"/>
<circle cx="2" cy="86" r="2" fill="#D9D9D9"/>
<circle cx="2" cy="98" r="2" fill="#D9D9D9"/>
<circle cx="2" cy="110" r="2" fill="#D9D9D9"/>
<circle cx="2" cy="122" r="2" fill="#D9D9D9"/>
<circle cx="2" cy="134" r="2" fill="#D9D9D9"/>
<circle cx="2" cy="146" r="2" fill="#D9D9D9"/>
<circle cx="2" cy="158" r="2" fill="#D9D9D9"/>
<circle cx="2" cy="170" r="2" fill="#D9D9D9"/>
<circle cx="2" cy="182" r="2" fill="#D9D9D9"/>
<circle cx="2" cy="194" r="2" fill="#D9D9D9"/>
<circle cx="2" cy="206" r="2" fill="#D9D9D9"/>
<circle cx="2" cy="218" r="2" fill="#D9D9D9"/>
<circle cx="86" cy="182" r="2" fill="#D9D9D9"/>
<circle cx="86" cy="194" r="2" fill="#D9D9D9"/>
<circle cx="86" cy="206" r="2" fill="#D9D9D9"/>
<circle cx="86" cy="218" r="2" fill="#D9D9D9"/>
<circle cx="170" cy="182" r="2" fill="#D9D9D9"/>
<circle cx="170" cy="194" r="2" fill="#D9D9D9"/>
<circle cx="170" cy="206" r="2" fill="#D9D9D9"/>
<circle cx="170" cy="218" r="2" fill="#D9D9D9"/>
<circle cx="14" cy="2" r="2" fill="#D9D9D9"/>
<circle cx="14" cy="14" r="2" fill="#D9D9D9"/>
<circle cx="14" cy="26" r="2" fill="#D9D9D9"/>
<circle cx="14" cy="38" r="2" fill="#D9D9D9"/>
<circle cx="14" cy="50" r="2" fill="#D9D9D9"/>
<circle cx="14" cy="62" r="2" fill="#D9D9D9"/>
<circle cx="14" cy="74" r="2" fill="#D9D9D9"/>
<circle cx="14" cy="86" r="2" fill="#D9D9D9"/>
<circle cx="14" cy="98" r="2" fill="#D9D9D9"/>
<circle cx="14" cy="110" r="2" fill="#D9D9D9"/>
<circle cx="14" cy="122" r="2" fill="#D9D9D9"/>
<circle cx="14" cy="134" r="2" fill="#D9D9D9"/>
<circle cx="14" cy="146" r="2" fill="#D9D9D9"/>
<circle cx="14" cy="158" r="2" fill="#D9D9D9"/>
<circle cx="14" cy="170" r="2" fill="#D9D9D9"/>
<circle cx="14" cy="182" r="2" fill="#D9D9D9"/>
<circle cx="14" cy="194" r="2" fill="#D9D9D9"/>
<circle cx="14" cy="206" r="2" fill="#D9D9D9"/>
<circle cx="14" cy="218" r="2" fill="#D9D9D9"/>
<circle cx="98" cy="182" r="2" fill="#D9D9D9"/>
<circle cx="98" cy="194" r="2" fill="#D9D9D9"/>
<circle cx="98" cy="206" r="2" fill="#D9D9D9"/>
<circle cx="98" cy="218" r="2" fill="#D9D9D9"/>
<circle cx="182" cy="182" r="2" fill="#D9D9D9"/>
<circle cx="182" cy="194" r="2" fill="#D9D9D9"/>
<circle cx="182" cy="206" r="2" fill="#D9D9D9"/>
<circle cx="182" cy="218" r="2" fill="#D9D9D9"/>
<circle cx="26" cy="2" r="2" fill="#D9D9D9"/>
<circle cx="26" cy="14" r="2" fill="#D9D9D9"/>
<circle cx="26" cy="26" r="2" fill="#D9D9D9"/>
<circle cx="26" cy="38" r="2" fill="#D9D9D9"/>
<circle cx="26" cy="50" r="2" fill="#D9D9D9"/>
<circle cx="26" cy="62" r="2" fill="#D9D9D9"/>
<circle cx="26" cy="74" r="2" fill="#D9D9D9"/>
<circle cx="26" cy="86" r="2" fill="#D9D9D9"/>
<circle cx="26" cy="98" r="2" fill="#D9D9D9"/>
<circle cx="26" cy="110" r="2" fill="#D9D9D9"/>
<circle cx="26" cy="122" r="2" fill="#D9D9D9"/>
<circle cx="26" cy="134" r="2" fill="#D9D9D9"/>
<circle cx="26" cy="146" r="2" fill="#D9D9D9"/>
<circle cx="26" cy="158" r="2" fill="#D9D9D9"/>
<circle cx="26" cy="170" r="2" fill="#D9D9D9"/>
<circle cx="26" cy="182" r="2" fill="#D9D9D9"/>
<circle cx="26" cy="194" r="2" fill="#D9D9D9"/>
<circle cx="26" cy="206" r="2" fill="#D9D9D9"/>
<circle cx="26" cy="218" r="2" fill="#D9D9D9"/>
<circle cx="110" cy="182" r="2" fill="#D9D9D9"/>
<circle cx="110" cy="194" r="2" fill="#D9D9D9"/>
<circle cx="110" cy="206" r="2" fill="#D9D9D9"/>
<circle cx="110" cy="218" r="2" fill="#D9D9D9"/>
<circle cx="194" cy="182" r="2" fill="#D9D9D9"/>
<circle cx="194" cy="194" r="2" fill="#D9D9D9"/>
<circle cx="194" cy="206" r="2" fill="#D9D9D9"/>
<circle cx="194" cy="218" r="2" fill="#D9D9D9"/>
<circle cx="38" cy="2" r="2" fill="#D9D9D9"/>
<circle cx="38" cy="14" r="2" fill="#D9D9D9"/>
<circle cx="38" cy="26" r="2" fill="#D9D9D9"/>
<circle cx="38" cy="38" r="2" fill="#D9D9D9"/>
<circle cx="38" cy="50" r="2" fill="#D9D9D9"/>
<circle cx="38" cy="62" r="2" fill="#D9D9D9"/>
<circle cx="38" cy="74" r="2" fill="#D9D9D9"/>
<circle cx="38" cy="86" r="2" fill="#D9D9D9"/>
<circle cx="38" cy="98" r="2" fill="#D9D9D9"/>
<circle cx="38" cy="110" r="2" fill="#D9D9D9"/>
<circle cx="38" cy="122" r="2" fill="#D9D9D9"/>
<circle cx="38" cy="134" r="2" fill="#D9D9D9"/>
<circle cx="38" cy="146" r="2" fill="#D9D9D9"/>
<circle cx="38" cy="158" r="2" fill="#D9D9D9"/>
<circle cx="38" cy="170" r="2" fill="#D9D9D9"/>
<circle cx="38" cy="182" r="2" fill="#D9D9D9"/>
<circle cx="38" cy="194" r="2" fill="#D9D9D9"/>
<circle cx="38" cy="206" r="2" fill="#D9D9D9"/>
<circle cx="38" cy="218" r="2" fill="#D9D9D9"/>
<circle cx="122" cy="182" r="2" fill="#D9D9D9"/>
<circle cx="122" cy="194" r="2" fill="#D9D9D9"/>
<circle cx="122" cy="206" r="2" fill="#D9D9D9"/>
<circle cx="122" cy="218" r="2" fill="#D9D9D9"/>
<circle cx="206" cy="182" r="2" fill="#D9D9D9"/>
<circle cx="206" cy="194" r="2" fill="#D9D9D9"/>
<circle cx="206" cy="206" r="2" fill="#D9D9D9"/>
<circle cx="206" cy="218" r="2" fill="#D9D9D9"/>
<circle cx="50" cy="2" r="2" fill="#D9D9D9"/>
<circle cx="50" cy="14" r="2" fill="#D9D9D9"/>
<circle cx="50" cy="26" r="2" fill="#D9D9D9"/>
<circle cx="50" cy="38" r="2" fill="#D9D9D9"/>
<circle cx="50" cy="50" r="2" fill="#D9D9D9"/>
<circle cx="50" cy="62" r="2" fill="#D9D9D9"/>
<circle cx="50" cy="74" r="2" fill="#D9D9D9"/>
<circle cx="50" cy="86" r="2" fill="#D9D9D9"/>
<circle cx="50" cy="98" r="2" fill="#D9D9D9"/>
<circle cx="50" cy="110" r="2" fill="#D9D9D9"/>
<circle cx="50" cy="122" r="2" fill="#D9D9D9"/>
<circle cx="50" cy="134" r="2" fill="#D9D9D9"/>
<circle cx="50" cy="146" r="2" fill="#D9D9D9"/>
<circle cx="50" cy="158" r="2" fill="#D9D9D9"/>
<circle cx="50" cy="170" r="2" fill="#D9D9D9"/>
<circle cx="50" cy="182" r="2" fill="#D9D9D9"/>
<circle cx="50" cy="194" r="2" fill="#D9D9D9"/>
<circle cx="50" cy="206" r="2" fill="#D9D9D9"/>
<circle cx="50" cy="218" r="2" fill="#D9D9D9"/>
<circle cx="134" cy="182" r="2" fill="#D9D9D9"/>
<circle cx="134" cy="194" r="2" fill="#D9D9D9"/>
<circle cx="134" cy="206" r="2" fill="#D9D9D9"/>
<circle cx="134" cy="218" r="2" fill="#D9D9D9"/>
<circle cx="218" cy="182" r="2" fill="#D9D9D9"/>
<circle cx="218" cy="194" r="2" fill="#D9D9D9"/>
<circle cx="218" cy="206" r="2" fill="#D9D9D9"/>
<circle cx="218" cy="218" r="2" fill="#D9D9D9"/>
<circle cx="62" cy="2" r="2" fill="#D9D9D9"/>
<circle cx="62" cy="14" r="2" fill="#D9D9D9"/>
<circle cx="62" cy="26" r="2" fill="#D9D9D9"/>
<circle cx="62" cy="38" r="2" fill="#D9D9D9"/>
<circle cx="62" cy="50" r="2" fill="#D9D9D9"/>
<circle cx="62" cy="62" r="2" fill="#D9D9D9"/>
<circle cx="62" cy="74" r="2" fill="#D9D9D9"/>
<circle cx="62" cy="86" r="2" fill="#D9D9D9"/>
<circle cx="62" cy="98" r="2" fill="#D9D9D9"/>
<circle cx="62" cy="110" r="2" fill="#D9D9D9"/>
<circle cx="62" cy="122" r="2" fill="#D9D9D9"/>
<circle cx="62" cy="134" r="2" fill="#D9D9D9"/>
<circle cx="62" cy="146" r="2" fill="#D9D9D9"/>
<circle cx="62" cy="158" r="2" fill="#D9D9D9"/>
<circle cx="62" cy="170" r="2" fill="#D9D9D9"/>
<circle cx="62" cy="182" r="2" fill="#D9D9D9"/>
<circle cx="62" cy="194" r="2" fill="#D9D9D9"/>
<circle cx="62" cy="206" r="2" fill="#D9D9D9"/>
<circle cx="62" cy="218" r="2" fill="#D9D9D9"/>
<circle cx="146" cy="182" r="2" fill="#D9D9D9"/>
<circle cx="146" cy="194" r="2" fill="#D9D9D9"/>
<circle cx="146" cy="206" r="2" fill="#D9D9D9"/>
<circle cx="146" cy="218" r="2" fill="#D9D9D9"/>
<circle cx="74" cy="2" r="2" fill="#D9D9D9"/>
<circle cx="74" cy="14" r="2" fill="#D9D9D9"/>
<circle cx="74" cy="26" r="2" fill="#D9D9D9"/>
<circle cx="74" cy="38" r="2" fill="#D9D9D9"/>
<circle cx="74" cy="50" r="2" fill="#D9D9D9"/>
<circle cx="74" cy="62" r="2" fill="#D9D9D9"/>
<circle cx="74" cy="74" r="2" fill="#D9D9D9"/>
<circle cx="74" cy="86" r="2" fill="#D9D9D9"/>
<circle cx="74" cy="98" r="2" fill="#D9D9D9"/>
<circle cx="74" cy="110" r="2" fill="#D9D9D9"/>
<circle cx="74" cy="122" r="2" fill="#D9D9D9"/>
<circle cx="74" cy="134" r="2" fill="#D9D9D9"/>
<circle cx="74" cy="146" r="2" fill="#D9D9D9"/>
<circle cx="74" cy="158" r="2" fill="#D9D9D9"/>
<circle cx="74" cy="170" r="2" fill="#D9D9D9"/>
<circle cx="74" cy="182" r="2" fill="#D9D9D9"/>
<circle cx="74" cy="194" r="2" fill="#D9D9D9"/>
<circle cx="74" cy="206" r="2" fill="#D9D9D9"/>
<circle cx="74" cy="218" r="2" fill="#D9D9D9"/>
<circle cx="158" cy="182" r="2" fill="#D9D9D9"/>
<circle cx="158" cy="194" r="2" fill="#D9D9D9"/>
<circle cx="158" cy="206" r="2" fill="#D9D9D9"/>
<circle cx="158" cy="218" r="2" fill="#D9D9D9"/>
</svg>
