<svg width="109" height="109" viewBox="0 0 109 109" fill="none" xmlns="http://www.w3.org/2000/svg">
<path d="M108.934 54.7859C108.934 78.9011 93.0367 99.3855 71.1777 106.288C66.0528 107.917 60.5992 108.784 54.9514 108.784C25.1885 108.784 0.96875 84.5638 0.96875 54.7859C0.96875 39.2918 7.52796 25.3069 18.0167 15.4606C27.6837 6.36137 40.6826 0.803223 54.9514 0.803223C84.7144 0.803223 108.934 25.023 108.934 54.7859Z" fill="#3C964C"/>
<path d="M45.4695 23.6148C40.8904 25.5164 36.8933 27.3791 36.6604 27.7283C35.535 29.203 36.3112 31.1821 38.2127 31.8806C38.6784 32.0359 41.8993 30.8717 47.2546 28.6597L55.5592 25.2059L68.6371 30.6388C75.8551 33.6269 81.8701 36.1882 82.0253 36.3046C82.1806 36.4598 76.282 39.0599 68.9087 42.1256L55.5592 47.6361L42.8307 42.3584C35.8455 39.4479 29.7917 36.9255 29.3648 36.7703C28.7051 36.4986 28.8603 36.3434 30.529 35.6061C33.129 34.4807 33.8276 33.7822 33.8276 32.2687C33.8276 30.8717 32.7022 29.7851 31.3051 29.7851C30.8783 29.7851 28.3558 30.7164 25.6782 31.8418C21.7199 33.5105 20.6721 34.0926 19.9736 35.1792L19.0811 36.4986V54.2332V71.9679L19.9736 73.2873C20.7497 74.4903 22.3796 75.2276 37.3202 81.4755C50.398 86.9084 54.1622 88.3442 55.5592 88.3442C56.9563 88.3442 60.7205 86.9084 73.7983 81.4755C93.4733 73.2485 92.0374 74.3739 92.0374 67.3887C92.0374 63.2752 91.9598 62.6931 91.2613 61.9946C90.3688 61.102 89.0105 60.9856 87.924 61.7617C87.303 62.2274 87.1478 62.9259 86.9926 66.3021L86.7986 70.2992L77.0969 74.2963C71.7804 76.547 65.3385 79.1859 62.8161 80.2337L58.2757 82.1352L58.3533 67.1946L58.4697 52.2153L61.1086 51.0899C62.5832 50.469 63.8639 49.9645 63.9415 49.9645C64.0191 49.9645 64.0967 53.9228 64.0967 58.7736C64.0967 63.6632 64.2519 67.8156 64.4072 68.0484C64.5624 68.2812 65.1057 68.7081 65.5714 68.9409C67.1236 69.7559 68.3266 68.8633 71.2371 64.9051C72.7118 62.8871 73.9536 61.2184 73.9924 61.2184C74.07 61.2184 74.8849 61.6453 75.7775 62.1886C77.9507 63.4304 79.7358 63.4692 80.5507 62.305C81.0552 61.5677 81.1716 59.9378 81.1716 52.0989V42.7465L84.0821 41.5435L86.9926 40.3405V47.869C86.9926 54.893 87.0314 55.4362 87.7687 56.1736C88.7777 57.1825 90.2523 57.1825 91.2613 56.1736C91.9986 55.4362 92.0374 54.893 92.0374 45.9286C92.0374 36.7315 91.9986 36.4598 91.1449 35.1792C90.33 33.9762 88.7777 33.2389 73.7983 26.991C60.7593 21.5581 56.9563 20.1223 55.5592 20.1223C54.2398 20.1223 51.795 20.976 45.4695 23.6148ZM51.989 51.9437L52.8428 52.2929V67.1946V82.1352L48.3024 80.2337C45.78 79.1859 39.3769 76.547 34.0216 74.2963L24.3199 70.2992L24.2035 55.3198L24.1259 40.3405L37.5918 45.9674C45.0427 49.072 51.4846 51.7496 51.989 51.9437ZM76.1267 50.5466C76.1267 53.6511 76.0491 56.1736 76.0103 56.1736C75.9327 56.1736 75.3118 55.9019 74.6521 55.5915C72.9834 54.7377 71.7028 55.2034 70.3058 57.0661L69.1416 58.6572V53.1855V47.7525L72.3625 46.3555C74.1088 45.6182 75.6611 44.9973 75.8551 44.9585C76.0103 44.9197 76.1267 47.4421 76.1267 50.5466Z" fill="white"/>
<path d="M28.2783 56.0965C27.735 56.6786 27.6186 57.6876 27.6186 61.6847C27.6186 68.0101 27.929 68.5146 32.8575 70.5714C34.7978 71.3863 36.8158 72.046 37.4367 72.0848C39.4934 72.0848 40.7352 69.7176 39.5322 68.049C39.2606 67.6609 37.6307 66.7683 35.9232 66.0698L32.8575 64.7892L32.6634 60.6369C32.5082 57.1055 32.353 56.407 31.7321 55.9413C30.6843 55.204 29.0156 55.2428 28.2783 56.0965Z" fill="white"/>
</svg>
