<?xml version="1.0" encoding="utf-8"?>
<!-- Generator: Adobe Illustrator 26.0.1, SVG Export Plug-In . SVG Version: 6.00 Build 0)  -->
<svg version="1.1" id="Layer_1" xmlns="http://www.w3.org/2000/svg" xmlns:xlink="http://www.w3.org/1999/xlink" x="0px" y="0px"
	 viewBox="0 0 272.75 72.43" style="enable-background:new 0 0 272.75 72.43;" xml:space="preserve">
<style type="text/css">
	.st0{fill:#FFFFFF;stroke:#3C964C;stroke-width:0.75;stroke-miterlimit:10;}
</style>
<g>
	<g>
		<g>
			<polygon class="st0" points="5.68,71.9 14.56,71.9 34.3,40.44 24.25,40.44 13.22,59.74 11.9,40.44 1.85,40.44 			"/>
			<path class="st0" d="M5.68,71.9h8.88L34.3,40.44H24.25l-11.03,19.3l-1.32-19.3H1.85L5.68,71.9z"/>
		</g>
		<g>
			<path class="st0" d="M52.55,32.46h9.49l2.42-9.58h0c0.34-1.32,0.77-2.91,0.6-3.83c-0.29-1.52-0.18-0.67-0.52-1.54
				c-0.19-0.49-0.35-1.04-0.49-1.55c-0.26-0.02-0.96,0.27-1.4,0.33c-1.71,0.25-2.84-0.43-4.02-0.68c-0.69-0.14-1.44,0.03-0.23-1.99
				c0.78-1.31,1.58-2.12,2.66-3.05c0.47-0.4,1.06-0.97,1.58-1.22c0.91-0.42,1.24-0.81,1.86-0.61c0.54,0.17,0.65,0.22,0.79,0.67
				c0.19,0.58,0.2,0.69-0.3,1.14c-0.2,0.18-0.24,0.32-0.48,0.45c-0.21,0.11-0.45,0.16-0.68,0.11c-0.85-0.19-0.27,0.06-1.26-0.33
				c-0.47,0.36-0.82,1.35-0.89,1.97c0.48-0.13,0.66-0.36,1.34-0.34c0.68,0.02,0.8,0.28,1.22,0.37c0.71-0.48,1.66-1.28,2.75-0.76
				c0.35,0.17,0.51,0.41,0.63,0.46c0.33-0.13,0.98-0.49,1.29-0.68c0.67-0.41,0.63-0.36,0.86-1.25c0.08-0.3,0.13-0.53,0.1-0.79
				c-0.05-0.45-0.16-0.3-0.24-0.53c-0.07-0.23,0.08-0.58,0.14-0.85c0.12-0.55,0.08-0.58,0.5-0.5c0.21-0.73,0.29-1.33,0.83-1.86
				c0.99-0.99,2.65-0.9,3.08-0.03c0.25,0.52,0.09,1.14-0.11,1.89c0.43-0.07,0.44-0.13,0.27,0.45c-0.28,0.97-0.06,0.67-0.55,1.1
				c-0.28,0.25-0.47,0.78-0.55,1.12c-0.22,0.88-0.25,0.85,0.23,1.25c0.18,0.15,0.77,0.64,0.99,0.68c1.4-0.98,2.58-0.68,3.18,0.32
				c0.44-0.19,0.82-0.37,1.37-0.39c0.78-0.03,0.93,0.26,1.21,0.34c0.3-0.79,0.34-1.4,0.14-1.97c-0.16,0.02-0.42,0.16-0.64,0.2
				c-0.28,0.06-0.47,0.04-0.74,0.1c-0.25,0.06-0.46,0.05-0.65-0.06c-0.24-0.14-0.16-0.2-0.28-0.43c-0.19-0.39-0.4-0.38,0.18-1.11
				c0.4-0.5,0.47-0.54,1.12-0.74c0.71-0.21,0.71-0.04,1.12,0.23c1.27,0.86,1.08,1,1.98,2.4c0.28,0.44,0.52,1.45,0.61,2.11
				c0.05,0.36,0.08,0.91-0.03,1.35c-0.19,0.73-0.58,0.63-1.15,0.73c-1.43,0.26-2.74,0.91-4.38,0.69c-0.42-0.06-0.99-0.36-1.25-0.33
				l-0.86,1.06c-0.9,0.8-2.7,2.95-2.75,4.03c-0.02,0.52,0.06,1.28-0.07,1.83h0.18c6.11,0,10.12-2.87,11.64-8.88l1.04-4.13
				C86.97,3.86,84.4,1,78.3,1H60.5L52.55,32.46z"/>
			<path class="st0" d="M52.55,32.46h9.49l2.42-9.58h0c0.34-1.32,0.77-2.91,0.6-3.83c-0.29-1.52-0.18-0.67-0.52-1.54
				c-0.19-0.49-0.35-1.04-0.49-1.55c-0.26-0.02-0.96,0.27-1.4,0.33c-1.71,0.25-2.84-0.43-4.02-0.68c-0.69-0.14-1.44,0.03-0.23-1.99
				c0.78-1.31,1.58-2.12,2.66-3.05c0.47-0.4,1.06-0.97,1.58-1.22c0.91-0.42,1.24-0.81,1.86-0.61c0.54,0.17,0.65,0.22,0.79,0.67
				c0.19,0.58,0.2,0.69-0.3,1.14c-0.2,0.18-0.24,0.32-0.48,0.45c-0.21,0.11-0.45,0.16-0.68,0.11c-0.85-0.19-0.27,0.06-1.26-0.33
				c-0.47,0.36-0.82,1.35-0.89,1.97c0.48-0.13,0.66-0.36,1.34-0.34c0.68,0.02,0.8,0.28,1.22,0.37c0.71-0.48,1.66-1.28,2.75-0.76
				c0.35,0.17,0.51,0.41,0.63,0.46c0.33-0.13,0.98-0.49,1.29-0.68c0.67-0.41,0.63-0.36,0.86-1.25c0.08-0.3,0.13-0.53,0.1-0.79
				c-0.05-0.45-0.16-0.3-0.24-0.53c-0.07-0.23,0.08-0.58,0.14-0.85c0.12-0.55,0.08-0.58,0.5-0.5c0.21-0.73,0.29-1.33,0.83-1.86
				c0.99-0.99,2.65-0.9,3.08-0.03c0.25,0.52,0.09,1.14-0.11,1.89c0.43-0.07,0.44-0.13,0.27,0.45c-0.28,0.97-0.06,0.67-0.55,1.1
				c-0.28,0.25-0.47,0.78-0.55,1.12c-0.22,0.88-0.25,0.85,0.23,1.25c0.18,0.15,0.77,0.64,0.99,0.68c1.4-0.98,2.58-0.68,3.18,0.32
				c0.44-0.19,0.82-0.37,1.37-0.39c0.78-0.03,0.93,0.26,1.21,0.34c0.3-0.79,0.34-1.4,0.14-1.97c-0.16,0.02-0.42,0.16-0.64,0.2
				c-0.28,0.06-0.47,0.04-0.74,0.1c-0.25,0.06-0.46,0.05-0.65-0.06c-0.24-0.14-0.16-0.2-0.28-0.43c-0.19-0.39-0.4-0.38,0.18-1.11
				c0.4-0.5,0.47-0.54,1.12-0.74c0.71-0.21,0.71-0.04,1.12,0.23c1.27,0.86,1.08,1,1.98,2.4c0.28,0.44,0.52,1.45,0.61,2.11
				c0.05,0.36,0.08,0.91-0.03,1.35c-0.19,0.73-0.58,0.63-1.15,0.73c-1.43,0.26-2.74,0.91-4.38,0.69c-0.42-0.06-0.99-0.36-1.25-0.33
				l-0.86,1.06c-0.9,0.8-2.7,2.95-2.75,4.03c-0.02,0.52,0.06,1.28-0.07,1.83h0.18c6.11,0,10.12-2.87,11.64-8.88l1.04-4.13
				C86.97,3.86,84.4,1,78.3,1H60.5L52.55,32.46z"/>
		</g>
		<g>
			<path class="st0" d="M92.68,1l-5.52,21.84c-1.73,6.86,1.21,10.1,8.11,10.1h6.48c6.9,0,11.48-3.24,13.21-10.1L120.48,1h-9.49
				l-5.44,21.51c-0.43,1.69-1.63,2.54-3.41,2.54h-3.29c-1.83,0-2.56-0.85-2.13-2.54L102.16,1H92.68z"/>
			<path class="st0" d="M92.68,1l-5.52,21.84c-1.73,6.86,1.21,10.1,8.11,10.1h6.48c6.9,0,11.48-3.24,13.21-10.1L120.48,1h-9.49
				l-5.44,21.51c-0.43,1.69-1.63,2.54-3.41,2.54h-3.29c-1.83,0-2.56-0.85-2.13-2.54L102.16,1H92.68z"/>
		</g>
		<g>
			<path class="st0" d="M121.06,21.76l-0.49,1.93c-1.6,6.34,0.9,9.25,8.46,9.25H135c7.51,0,11.54-2.91,13.14-9.25l0.2-0.8
				c1.38-5.45-0.12-8.08-6.43-9.11l-7.06-1.22c-1.35-0.23-1.72-0.99-1.44-2.11l0.12-0.47c0.32-1.27,1.14-1.93,3.16-1.93h3.24
				c2.02,0,2.51,0.66,2.19,1.93l-0.44,1.74h9.49l0.49-1.93c1.6-6.34-0.95-9.25-8.46-9.25h-5.92c-7.56,0-11.6,2.96-13.19,9.25
				l-0.17,0.66c-1.38,5.45,0.12,8.08,6.43,9.11l7.06,1.22c1.35,0.23,1.72,0.99,1.44,2.11l-0.15,0.61c-0.31,1.22-1.14,1.93-3.16,1.93
				h-3.24c-2.02,0-2.5-0.7-2.19-1.93l0.44-1.74H121.06z"/>
			<path class="st0" d="M121.06,21.76l-0.49,1.93c-1.6,6.34,0.9,9.25,8.46,9.25H135c7.51,0,11.54-2.91,13.14-9.25l0.2-0.8
				c1.38-5.45-0.12-8.08-6.43-9.11l-7.06-1.22c-1.35-0.23-1.72-0.99-1.44-2.11l0.12-0.47c0.32-1.27,1.14-1.93,3.16-1.93h3.24
				c2.02,0,2.51,0.66,2.19,1.93l-0.44,1.74h9.49l0.49-1.93c1.6-6.34-0.95-9.25-8.46-9.25h-5.92c-7.56,0-11.6,2.96-13.19,9.25
				l-0.17,0.66c-1.38,5.45,0.12,8.08,6.43,9.11l7.06,1.22c1.35,0.23,1.72,0.99,1.44,2.11l-0.15,0.61c-0.31,1.22-1.14,1.93-3.16,1.93
				h-3.24c-2.02,0-2.5-0.7-2.19-1.93l0.44-1.74H121.06z"/>
		</g>
		<g>
			<polygon class="st0" points="151.85,32.46 161.33,32.46 164.31,20.68 173,20.68 170.02,32.46 179.51,32.46 187.46,1 177.97,1 
				175,12.79 166.31,12.79 169.29,1 159.8,1 			"/>
			<path class="st0" d="M151.85,32.46h9.49l2.98-11.79H173l-2.98,11.79h9.49L187.46,1h-9.49L175,12.79h-8.69L169.29,1h-9.49
				L151.85,32.46z"/>
		</g>
		<g>
			<polygon class="st0" points="192.38,32.46 201.87,32.46 207.83,8.89 216.8,8.89 218.79,1 191.36,1 189.37,8.89 198.34,8.89 			
				"/>
			<path class="st0" d="M192.38,32.46h9.49l5.96-23.58h8.97L218.79,1h-27.43l-1.99,7.89h8.97L192.38,32.46z"/>
		</g>
		<g>
			<polygon class="st0" points="214.74,32.46 224.23,32.46 232.18,1 222.69,1 			"/>
			<path class="st0" d="M214.74,32.46h9.49L232.18,1h-9.49L214.74,32.46z"/>
		</g>
		<path class="st0" d="M22.89,71.9h9.63l3.29-5.78h10.33l0.37,5.78h9.63L52.4,40.44h-9.86L22.89,71.9L22.89,71.9z M39.46,59.69
			l5.65-9.91l0.64,9.91H39.46z"/>
		<path class="st0" d="M59.4,71.9h9.35l2.65-10.47h2.82l3.13,10.47h10.38l-3.88-11.22c4.03-0.89,6.67-3.52,7.87-8.27l0.78-3.1
			c1.52-6.01-1-8.88-7.1-8.88H67.35L59.4,71.9L59.4,71.9z M73.35,53.68l1.35-5.35h6.67c1.27,0,1.74,0.56,1.44,1.74l-0.42,1.64
			c-0.34,1.36-1.11,1.97-2.38,1.97H73.35z"/>
		<path class="st0" d="M92.3,71.9h17.19c6.95,0,11.47-3.19,13.21-10.1l2.85-11.27c1.74-6.9-1.16-10.1-8.11-10.1h-17.19L92.3,71.9
			L92.3,71.9z M103.78,64.01l3.96-15.69h6.43c1.6,0,2.26,0.7,1.87,2.25l-2.82,11.18c-0.39,1.55-1.41,2.25-3.01,2.25H103.78z"/>
		<g>
			<polygon class="st0" points="125.66,71.9 135.15,71.9 138.13,60.12 146.82,60.12 143.84,71.9 153.33,71.9 161.28,40.44 
				151.79,40.44 148.81,52.22 140.12,52.22 143.1,40.44 133.61,40.44 			"/>
			<path class="st0" d="M125.66,71.9h9.49l2.98-11.79h8.69l-2.98,11.79h9.49l7.95-31.47h-9.49l-2.98,11.79h-8.69l2.98-11.79h-9.49
				L125.66,71.9z"/>
		</g>
		<g>
			<polygon class="st0" points="159.36,71.9 168.89,71.9 173.07,55.37 178.19,71.9 187.35,71.9 195.3,40.44 185.81,40.44 
				181.61,57.06 176.51,40.44 167.31,40.44 			"/>
			<path class="st0" d="M159.36,71.9h9.53l4.18-16.53l5.12,16.53h9.16l7.95-31.47h-9.49l-4.2,16.63l-5.1-16.63h-9.21L159.36,71.9z"
				/>
		</g>
		<g>
			<polygon class="st0" points="227.12,71.9 236.61,71.9 241.53,52.41 243.36,65.99 249.75,65.99 258.38,52.46 253.47,71.9 
				262.95,71.9 270.9,40.44 259.21,40.44 249.19,55.56 246.76,40.44 235.07,40.44 			"/>
			<path class="st0" d="M227.12,71.9h9.49l4.92-19.49l1.83,13.57h6.39l8.63-13.53l-4.91,19.44h9.49l7.95-31.47h-11.69l-10.02,15.12
				l-2.43-15.12h-11.69L227.12,71.9z"/>
		</g>
		<path class="st0" d="M219.96,40.44h-9.86L190.45,71.9h9.63c0,0,3.29-5.77,3.29-5.78c0.42-0.68,1.88-0.16,2.33-0.07
			c0.9,0.18,1.83-0.13,2.08-1.23c0.26-1.17,0.14-2.52-0.39-3.42c-0.11-0.19-0.25-0.36-0.38-0.54c-0.13-0.19-0.19-0.41-0.11-0.68
			c0.08-0.27,0.18-0.53,0.28-0.8c0.05-0.12,0.04-0.14-0.08-0.11c-0.45,0.12-0.9,0.24-1.35,0.31c-0.41,0.06-0.82,0.14-1.23,0.15
			c-0.23,0.01-0.46-0.01-0.69-0.02c-0.17-0.01-0.33-0.02-0.5-0.02c-0.19,0-0.39,0.01-0.59,0.03c-0.14,0.01-0.21-0.04-0.26-0.15
			c-0.28-0.62-0.36-1.31-0.28-2.05c0-0.04,0-0.09-0.01-0.13c0.17-0.68,0.34-1.36,0.52-2.05c0.02-0.04,0.05-0.08,0.06-0.12
			c0.16-0.48,0.33-0.97,0.49-1.45c0.15-0.45,0.25-0.9,0.3-1.35c0.02-0.24,0.09-0.47,0.26-0.69c0.13-0.18,0.26-0.35,0.39-0.53
			c0.22-0.32,0.43-0.65,0.65-0.98c0.04-0.06,0.09-0.12,0.15-0.16c0.13-0.1,0.27-0.19,0.41-0.28c0.13-0.09,0.24-0.1,0.35-0.04
			c0.03,0.02,0.07,0.04,0.11,0.03c0.17-0.05,0.3-0.01,0.44,0.04c0.27,0.09,0.45,0.26,0.53,0.53c0.03,0.12,0.07,0.24,0.11,0.36
			c0.02,0.07,0.01,0.14-0.04,0.21c-0.04,0.06-0.04,0.09,0.02,0.12c0.08,0.05,0.16,0.11,0.14,0.24c-0.03,0.17-0.11,0.32-0.29,0.43
			c-0.14,0.09-0.29,0.18-0.42,0.29c-0.24,0.2-0.48,0.24-0.72,0.2c-0.1-0.02-0.2-0.03-0.3-0.03c-0.07-0.01-0.13,0.02-0.16,0.11
			c-0.04,0.12-0.11,0.23-0.14,0.35c-0.16,0.64-0.32,1.28-0.47,1.92c-0.04,0.18-0.05,0.36-0.03,0.53c0.1,0.63,0.22,1.25,0.25,1.9
			c0,0.09,0.03,0.1,0.12,0.05c0.11-0.07,0.23-0.14,0.33-0.23c0.37-0.32,0.77-0.44,1.19-0.48c0.26-0.02,0.51,0,0.72,0.12
			c0.15,0.09,0.19,0.08,0.36-0.06c0.02-0.01,0.03-0.03,0.05-0.04c0.41-0.32,0.85-0.49,1.31-0.47c0.22,0.01,0.42,0.07,0.6,0.16
			c0.21,0.1,0.44,0.18,0.72,0.12c0.23-0.06,0.47-0.16,0.7-0.25c0.04-0.02,0.09-0.07,0.11-0.11c0.21-0.38,0.22-0.73,0.12-1.07
			c-0.05-0.17-0.06-0.17-0.24-0.05c-0.25,0.16-0.51,0.3-0.79,0.37c-0.34,0.09-0.5-0.03-0.49-0.35c0-0.11-0.02-0.2-0.12-0.26
			c-0.09-0.05-0.13-0.14-0.09-0.26c0.01-0.03,0.01-0.08-0.01-0.09c-0.12-0.06-0.08-0.17-0.05-0.29c0.06-0.24,0.04-0.28-0.17-0.33
			c-0.09-0.02-0.12-0.07-0.08-0.16c0.07-0.16,0.14-0.32,0.23-0.47c0.18-0.29,0.26-0.56,0.12-0.82c-0.03-0.05-0.04-0.12-0.04-0.18
			c0-0.28,0.06-0.57,0.2-0.86c0.08-0.15,0.17-0.3,0.13-0.46c0-0.02,0-0.04,0.01-0.06c0.13-0.43,0.4-0.78,0.84-1
			c0.09-0.05,0.18-0.08,0.28-0.13c0.43-0.21,0.87-0.37,1.32-0.43c0.03,0,0.06-0.02,0.1-0.04c0.24,0,0.49,0,0.73,0
			c0.03,0.01,0.06,0.03,0.09,0.04c0.32,0.05,0.62,0.16,0.88,0.31c0.27,0.16,0.56,0.3,0.56,0.69c0,0.08,0.06,0.09,0.14,0.09
			c0.08,0,0.13-0.02,0.19-0.09c0.19-0.25,0.42-0.46,0.72-0.54c0.48-0.13,0.94-0.16,1.36-0.01c0.28,0.1,0.5,0.28,0.58,0.58
			c0.09,0.37,0.1,0.77-0.01,1.18c-0.13,0.5-0.39,0.98-0.73,1.42c-0.23,0.3-0.43,0.59-0.46,0.94c0,0.01-0.02,0.03-0.05,0.08
			c-0.03-0.11-0.05-0.2-0.08-0.29c-0.14,0.15-0.2,0.31-0.27,0.46c-0.06,0.16-0.1,0.32-0.15,0.48c-0.03-0.01-0.06-0.01-0.11-0.02
			c0,0.12-0.01,0.23-0.01,0.36c-0.04-0.04-0.07-0.06-0.11-0.1c-0.07,0.31,0.1,0.48,0.19,0.7c-0.18,0.08-0.65-0.06-0.8-0.24
			c-0.18-0.21-0.31-0.45-0.25-0.78c-0.04,0.02-0.06,0.04-0.09,0.05c-0.01-0.04-0.03-0.08-0.03-0.12c-0.03-0.2,0-0.41,0.09-0.62
			c0.02-0.05,0.03-0.1,0.03-0.15c-0.08,0.05-0.16,0.1-0.26,0.12c0.03-0.03,0.05-0.06,0.08-0.09c0.12-0.15,0.26-0.3,0.36-0.46
			c0.3-0.53,0.25-1.13-0.12-1.45c-0.02-0.02-0.04-0.02-0.07-0.04c-0.02,0.03-0.03,0.04-0.03,0.06c-0.09,0.32-0.28,0.61-0.44,0.91
			c-0.28,0.53-0.37,1.06-0.27,1.54c0.18,0.84,0.54,1.56,1.39,1.9c0.16,0.06,0.3,0.06,0.47-0.03c0.04-0.02,0.07-0.04,0.11-0.05
			c0.43-0.2,0.84-0.25,1.19-0.07c0.09,0.05,0.18,0.06,0.29,0c0.02-0.01,0.04-0.02,0.06-0.02c0.27-0.09,0.54-0.16,0.79-0.09
			c0.12,0.03,0.13,0.02,0.18-0.11c0.14-0.34,0.28-0.68,0.43-1.02c0.16-0.37,0.34-0.75,0.41-1.13c0.06-0.33,0.11-0.66,0.13-0.98
			c0.02-0.25,0-0.49,0-0.74c0-0.07-0.03-0.11-0.1-0.12c-0.18-0.04-0.34-0.12-0.45-0.26c-0.02-0.02-0.05-0.04-0.09-0.04
			c-0.19-0.01-0.33-0.08-0.44-0.22c-0.02-0.03-0.07-0.03-0.11-0.05c-0.06-0.02-0.11-0.04-0.17-0.07c-0.04-0.02-0.07-0.06-0.11-0.08
			c-0.07-0.03-0.09-0.08-0.06-0.16c0.05-0.12,0.01-0.25,0.15-0.38c0.03-0.06,0.06-0.12,0.1-0.17c0.3-0.3,0.61-0.59,0.92-0.88
			c0.04-0.04,0.12-0.06,0.18-0.08c0.12-0.03,0.25-0.03,0.37-0.07c0.19-0.06,0.29-0.05,0.35,0.11c0.08,0.22,0.14,0.46,0.2,0.69
			c0.06,0.22,0.05,0.46,0.18,0.64c0.09,0.12,0.14,0.26,0.18,0.42c0.06,0.26,0.07,0.53,0.06,0.81c-0.01,0.25-0.02,0.5-0.03,0.75
			c-0.01,0.38,0,0.75-0.01,1.13c-0.02,0.43-0.06,0.86-0.1,1.3c-0.02,0.28-0.08,0.6-0.09,0.89c-0.01,0.32,0.09,0.63-0.01,0.96
			c-0.15,0.5-0.85,0.82-1.29,1.05c-0.63,0.33-1.29,0.56-1.94,0.64c-0.35,0.05-0.68,0.05-0.97-0.07c-0.14-0.06-0.28-0.12-0.43-0.18
			c-0.1,0.19-0.2,0.37-0.3,0.55c-0.1,0.18-0.19,0.36-0.32,0.53c-0.26,0.33-0.54,0.66-0.82,0.98c-1.24,1.39-2.42,3.52-2.02,5.09
			c0.2,0.78,0.72,0.87,1.54,0.87l0.37,5.78h9.63L219.96,40.44z"/>
	</g>
</g>
</svg>
