<svg width="60" height="54" viewBox="0 0 60 54" fill="none" xmlns="http://www.w3.org/2000/svg">
<path id="left-quote 1 (Traced)" fill-rule="evenodd" clip-rule="evenodd" d="M40.495 53.8179C42.2279 53.1459 44.9322 51.6696 46.8891 50.3276C49.2304 48.722 52.4472 45.6597 54.0492 43.5114C56.9266 39.6529 58.4318 35.7284 59.2968 29.8292C59.8785 25.8624 59.9199 24.8553 59.9735 13.3414C60.0306 1.09612 60.0826 1.86474 59.1316 0.894554C58.2139 -0.0418013 58.7568 0.000286211 47.5788 0.000287188C36.7827 0.000288132 37.1606 -0.0221881 36.2687 0.67195C36.0409 0.849127 35.7122 1.24127 35.538 1.54326L35.2216 2.0925L35.1899 12.5255L35.158 22.9584L35.4112 23.5589C35.7085 24.2639 36.5245 25.0497 37.1408 25.2243C37.3935 25.2958 39.4988 25.3448 42.3407 25.3452L47.1161 25.3459L47.1161 26.0977C47.1161 27.8093 46.6378 30.7142 46.0389 32.6388C45.2429 35.1975 44.0282 37.2605 42.2688 39.0422C40.8334 40.4959 39.1712 41.6503 36.8346 42.8167C35.126 43.6695 34.8697 43.8811 34.4003 44.8269C34.2759 45.0774 34.1931 45.5238 34.189 45.9651C34.1831 46.6039 34.2612 46.8633 34.8383 48.1235C37.0346 52.919 37.2143 53.2233 38.1317 53.7008C38.8045 54.0509 39.7706 54.0988 40.495 53.8179ZM5.84138 53.9056C6.49084 53.7832 9.54462 52.2587 11.1982 51.2312C16.215 48.1141 20.1311 43.9379 22.4227 39.2613C24.0983 35.8416 24.9284 32.3872 25.5129 26.3992C25.6683 24.8079 25.7128 22.4287 25.7548 13.4619C25.8128 1.08226 25.8653 1.86618 24.9129 0.894557C23.9952 -0.04168 24.5374 0.000289203 13.3662 0.000290179C2.47752 0.000291131 2.8592 -0.0238636 1.97373 0.720723C1.74147 0.916078 1.41487 1.35556 1.24788 1.69737L0.944362 2.31881L0.946938 12.6667C0.949517 22.8185 0.954091 23.0248 1.18823 23.5526C1.46257 24.1711 1.88104 24.6527 2.4678 25.0255C2.86846 25.2802 2.99432 25.2876 7.91536 25.3459L12.9528 25.4057L12.917 26.3621C12.8246 28.8325 12.24 31.7725 11.4282 33.8494C10.5934 35.9849 9.59372 37.5426 8.07662 39.0714C6.69592 40.4628 5.28627 41.4543 3.07354 42.59C0.952334 43.6788 0.359481 44.1806 0.119365 45.0902C-0.164815 46.1668 -0.0151602 46.7092 1.38347 49.6753C2.16405 51.3307 2.85674 52.6341 3.12393 52.9502C3.80268 53.7532 4.79596 54.1025 5.84138 53.9056Z" fill="white"/>
</svg>
