<svg width="782" height="264" viewBox="0 0 782 264" fill="none" xmlns="http://www.w3.org/2000/svg">
<mask id="mask0_1_274" style="mask-type:luminance" maskUnits="userSpaceOnUse" x="0" y="0" width="782" height="264">
<path d="M754.041 263.55C763.291 260.775 772.612 257.897 782 254.923V255.284C773.016 258.131 764.093 260.886 755.235 263.55H754.041ZM692.247 263.55C721.402 256.278 751.311 248.112 782 238.873V239.234C751.807 248.323 722.371 256.371 693.66 263.552H692.247V263.55ZM608.558 263.55C663.345 253.025 721.057 239.832 782 222.427V222.784C721.731 239.994 664.623 253.084 610.376 263.548H608.558V263.55ZM483.053 263.55C573.07 251.556 672.087 235.327 782 205.596V205.954C673.15 235.39 574.983 251.59 485.665 263.55H483.053ZM306.66 263.55C338.551 259.257 371.777 255.459 406.48 251.495C515.612 239.027 639.339 224.887 782 188.4V188.756C639.357 225.233 515.643 239.369 406.522 251.836C372.75 255.695 340.381 259.395 309.276 263.548H306.66V263.55ZM186.352 263.55C256.189 245.856 333.229 237.55 419.725 228.244C525.108 216.906 644.522 204.05 782 170.853V171.208C644.541 204.395 525.138 217.249 419.763 228.587C333.845 237.832 257.26 246.09 187.8 263.552H186.352V263.55ZM123.058 263.55C211.64 227.472 312.69 217.219 432.286 205.121C534.155 194.815 649.485 183.142 782 152.976V153.33C649.501 183.485 534.183 195.158 432.32 205.462C313.133 217.519 212.369 227.744 124.017 263.55H123.058ZM84.5698 263.55C184.253 206.828 300.593 195.74 444.306 182.095C542.848 172.738 654.268 162.154 782 134.788V135.142C654.282 162.5 542.877 173.084 444.341 182.439C300.95 196.052 184.822 207.118 85.303 263.552H84.5698V263.55ZM58.7252 263.55C165.784 184.987 292.897 173.645 455.894 159.145C551.253 150.664 658.903 141.081 781.998 116.302V116.654C658.917 141.425 551.277 151.005 455.926 159.488C293.209 173.962 166.271 185.289 59.3447 263.552H58.7252V263.55ZM40.4183 263.55C152.695 162.437 287.849 151.166 467.134 136.256C559.425 128.581 663.418 119.923 782 97.5356V97.8871C663.433 120.268 559.447 128.924 467.165 136.599C288.121 151.491 153.105 162.725 40.9362 263.55H40.4183ZM27.0389 263.55C143.153 139.44 284.54 128.433 478.084 113.413C567.397 106.482 667.828 98.6815 782 78.5027V78.8543C667.838 99.027 567.419 106.825 478.113 113.756C284.825 128.756 143.585 139.773 27.5812 263.55H27.0389ZM17.0862 263.55C136.092 116.123 282.438 105.517 488.791 90.6109C575.203 84.3688 672.14 77.3649 782 59.2281V59.5776C672.152 77.7103 575.223 84.7122 488.817 90.9542C282.722 105.842 136.521 116.487 17.6224 263.55H17.0862ZM9.65002 263.55C130.864 92.6021 281.225 82.4629 499.296 67.8373C582.86 62.2333 676.377 55.9547 782 39.7015V40.049C676.387 56.2961 582.878 62.5746 499.32 68.1786C281.494 82.788 131.26 92.9496 10.1417 263.548H9.65002V263.55ZM4.10498 263.55C127.017 68.9203 280.679 59.3053 509.628 45.0901C590.394 40.0754 680.537 34.4734 782 19.9595V20.307C680.547 34.8168 590.412 40.4188 509.651 45.4335C280.941 59.6345 127.405 69.282 4.58026 263.55H4.10498ZM0 263.55C124.226 45.0718 280.634 36.0623 519.813 22.3612C597.816 17.8931 684.632 12.9149 782 0.00012207V0.347565C684.64 13.2583 597.832 18.2365 519.833 22.7046C280.88 36.3935 124.586 45.4112 0.440735 263.55H0Z" fill="white"/>
</mask>
<g mask="url(#mask0_1_274)">
<path d="M0 263.55H782V-0.00012207H0V263.55Z" fill="#B9B9B9"/>
</g>
</svg>
