<svg width="782" height="264" viewBox="0 0 782 264" fill="none" xmlns="http://www.w3.org/2000/svg">
<mask id="mask0_1_268" style="mask-type:luminance" maskUnits="userSpaceOnUse" x="0" y="0" width="782" height="264">
<path d="M27.959 0.00202149C18.7091 2.7776 9.38806 5.65478 0 8.62949V8.26782C8.98386 5.42112 17.9068 2.66585 26.7647 0.00202149H27.959ZM89.7533 0.00202149C60.5979 7.2742 30.6889 15.4404 0 24.6795V24.3178C30.1933 15.2291 59.629 7.18075 88.3396 0H89.7533V0.00202149ZM173.442 0.00202149C118.655 10.5273 60.9432 23.7204 0 41.1257V40.7681C60.2688 23.5579 117.377 10.4684 171.624 0.00405537H173.442V0.00202149ZM298.947 0.00202149C208.93 11.9963 109.913 28.2252 0 57.956V57.5984C108.85 28.1622 207.017 11.9618 296.335 0.00202149H298.947ZM475.34 0.00202149C443.449 4.29543 410.223 8.09307 375.52 12.0573C266.388 24.5251 142.661 38.6651 0 75.152V74.7964C142.643 38.3197 266.357 24.1837 375.478 11.716C409.25 7.85737 441.619 4.15727 472.724 0.00405537H475.34V0.00202149ZM595.648 0.00202149C525.811 17.6958 448.771 26.0023 362.275 35.3084C256.892 46.6464 137.478 59.5023 0 92.6995V92.3439C137.459 59.1568 256.862 46.303 362.237 34.965C448.155 25.7198 524.74 17.4622 594.2 0H595.648V0.00202149ZM658.942 0.00202149C570.36 36.0805 469.31 46.3335 349.714 58.4315C247.845 68.7373 132.515 80.4106 0 110.576V110.223C132.499 80.0672 247.817 68.3939 349.68 58.0901C468.867 46.0328 569.631 35.8082 657.983 0.00202149H658.942ZM697.43 0.00202149C597.747 56.7246 481.407 67.8127 337.694 81.457C239.152 90.8139 127.732 101.398 0 128.764V128.41C127.718 101.053 239.123 90.4685 337.659 81.1136C481.05 67.4998 597.178 56.4341 696.697 0H697.43V0.00202149ZM723.275 0.00202149C616.216 78.5656 489.103 89.9077 326.106 104.407C230.747 112.889 123.097 122.471 0.00203315 147.25V146.898C123.083 122.128 230.723 112.547 326.074 104.064C488.791 89.5907 615.729 78.2628 722.655 0H723.275V0.00202149ZM741.582 0.00202149C629.305 101.116 494.151 112.387 314.866 127.297C222.575 134.971 118.582 143.629 0 166.017V165.665C118.567 143.284 222.553 134.628 314.835 126.953C493.879 112.062 628.895 100.827 741.064 0.00202149H741.582ZM754.961 0.00202149C638.847 124.113 497.46 135.12 303.916 150.139C214.603 157.07 114.172 164.871 0 185.05V184.698C114.162 164.525 214.581 156.727 303.887 149.796C497.175 134.796 638.415 123.779 754.419 0.00202149H754.961ZM764.914 0.00202149C645.908 147.429 499.562 158.035 293.209 172.941C206.797 179.183 109.86 186.187 0 204.324V203.975C109.848 185.842 206.777 178.84 293.183 172.598C499.278 157.71 645.479 147.065 764.378 0.00202149H764.914ZM772.35 0.00202149C651.136 170.95 500.775 181.089 282.704 195.715C199.14 201.319 105.623 207.598 0 223.851V223.503C105.613 207.256 199.122 200.978 282.68 195.374C500.506 180.764 650.74 170.603 771.858 0.00405537H772.35V0.00202149ZM777.895 0.00202149C654.983 194.632 501.321 204.247 272.372 218.462C191.606 223.477 101.463 229.079 0 243.593V243.245C101.453 228.735 191.588 223.133 272.349 218.119C501.059 203.918 654.595 194.27 777.42 0.00202149H777.895ZM782 0.00202149C657.774 218.48 501.366 227.49 262.187 241.191C184.184 245.659 97.3681 250.637 0 263.552V263.205C97.36 250.294 184.168 245.316 262.167 240.848C501.12 227.159 657.414 218.141 781.559 0.00202149H782Z" fill="white"/>
</mask>
<g mask="url(#mask0_1_268)">
<path d="M782 0.0022583H0V263.552H782V0.0022583Z" fill="#B9B9B9"/>
</g>
</svg>
