<svg width="113" height="19" viewBox="0 0 113 19" fill="none" xmlns="http://www.w3.org/2000/svg">
<g id="Group 1502">
<g id="&#240;&#159;&#166;&#134; icon &#34;star&#34;">
<path id="Vector" d="M8.46654 0.59065C8.76596 -0.196885 9.89534 -0.196885 10.1948 0.590659L12.1263 5.94081C12.2614 6.29608 12.6057 6.53146 12.9904 6.53146H17.7366C18.6131 6.53146 18.9959 7.62342 18.3068 8.15751L14.929 11.1968C14.6181 11.4378 14.4973 11.8476 14.629 12.2155L15.8621 17.4437C16.1624 18.2828 15.1895 19.0046 14.4555 18.4874L9.86707 15.5772C9.54619 15.3511 9.11512 15.3511 8.79423 15.5772L4.20584 18.4874C3.47182 19.0046 2.49898 18.2828 2.7992 17.4437L4.03235 12.2155C4.16399 11.8476 4.04329 11.4378 3.73226 11.1968L0.354511 8.15751C-0.334633 7.62342 0.0482599 6.53146 0.924669 6.53146H5.67086C6.05556 6.53146 6.39989 6.29608 6.53497 5.94081L8.46654 0.59065Z" fill="#FBB833"/>
</g>
<g id="&#240;&#159;&#166;&#134; icon &#34;star&#34;_2">
<path id="Vector_2" d="M31.9044 0.59065C32.2038 -0.196885 33.3332 -0.196885 33.6326 0.590659L35.5642 5.94081C35.6993 6.29608 36.0436 6.53146 36.4283 6.53146H41.1745C42.0509 6.53146 42.4338 7.62342 41.7447 8.15751L38.3669 11.1968C38.0559 11.4378 37.9352 11.8476 38.0668 12.2155L39.3 17.4437C39.6002 18.2828 38.6273 19.0046 37.8934 18.4874L33.3049 15.5772C32.9841 15.3511 32.553 15.3511 32.2321 15.5772L27.6437 18.4874C26.9097 19.0046 25.9368 18.2828 26.2371 17.4437L27.4702 12.2155C27.6019 11.8476 27.4812 11.4378 27.1701 11.1968L23.7924 8.15751C23.1032 7.62342 23.4861 6.53146 24.3625 6.53146H29.1087C29.4934 6.53146 29.8378 6.29608 29.9728 5.94081L31.9044 0.59065Z" fill="#FBB833"/>
</g>
<g id="&#240;&#159;&#166;&#134; icon &#34;star&#34;_3">
<path id="Vector_3" d="M55.3424 0.59065C55.6418 -0.196885 56.7712 -0.196885 57.0706 0.590659L59.0022 5.94081C59.1373 6.29608 59.4816 6.53146 59.8663 6.53146H64.6125C65.4889 6.53146 65.8718 7.62342 65.1827 8.15751L61.8049 11.1968C61.4939 11.4378 61.3732 11.8476 61.5048 12.2155L62.738 17.4437C63.0382 18.2828 62.0653 19.0046 61.3314 18.4874L56.7429 15.5772C56.422 15.3511 55.991 15.3511 55.6701 15.5772L51.0817 18.4874C50.3477 19.0046 49.3748 18.2828 49.6751 17.4437L50.9082 12.2155C51.0398 11.8476 50.9191 11.4378 50.6081 11.1968L47.2304 8.15751C46.5412 7.62342 46.9241 6.53146 47.8005 6.53146H52.5467C52.9314 6.53146 53.2757 6.29608 53.4108 5.94081L55.3424 0.59065Z" fill="#FBB833"/>
</g>
<g id="&#240;&#159;&#166;&#134; icon &#34;star&#34;_4">
<path id="Vector_4" d="M78.7803 0.59065C79.0797 -0.196885 80.2091 -0.196885 80.5085 0.590659L82.44 5.94081C82.5751 6.29608 82.9194 6.53146 83.3041 6.53146H88.0504C88.9268 6.53146 89.3096 7.62342 88.6206 8.15751L85.2428 11.1968C84.9318 11.4378 84.811 11.8476 84.9427 12.2155L86.1758 17.4437C86.4761 18.2828 85.5032 19.0046 84.7692 18.4874L80.1808 15.5772C79.8599 15.3511 79.4288 15.3511 79.108 15.5772L74.5196 18.4874C73.7855 19.0046 72.8127 18.2828 73.1129 17.4437L74.3461 12.2155C74.4777 11.8476 74.357 11.4378 74.046 11.1968L70.6682 8.15751C69.9791 7.62342 70.362 6.53146 71.2384 6.53146H75.9846C76.3693 6.53146 76.7136 6.29608 76.8487 5.94081L78.7803 0.59065Z" fill="#FBB833"/>
</g>
<g id="&#240;&#159;&#166;&#134; icon &#34;star&#34;_5">
<path id="Vector_5" d="M102.218 0.59065C102.518 -0.196885 103.647 -0.196885 103.946 0.590659L105.878 5.94081C106.013 6.29608 106.357 6.53146 106.742 6.53146H111.488C112.365 6.53146 112.748 7.62342 112.059 8.15751L108.681 11.1968C108.37 11.4378 108.249 11.8476 108.381 12.2155L109.614 17.4437C109.914 18.2828 108.941 19.0046 108.207 18.4874L103.619 15.5772C103.298 15.3511 102.867 15.3511 102.546 15.5772L97.9575 18.4874C97.2235 19.0046 96.2507 18.2828 96.5509 17.4437L97.7841 12.2155C97.9157 11.8476 97.795 11.4378 97.484 11.1968L94.1062 8.15751C93.4171 7.62342 93.8 6.53146 94.6764 6.53146H99.4226C99.8073 6.53146 100.152 6.29608 100.287 5.94081L102.218 0.59065Z" fill="#FBB833"/>
</g>
</g>
</svg>
