<svg width="476" height="161" viewBox="0 0 476 161" fill="none" xmlns="http://www.w3.org/2000/svg">
<mask id="mask0_1_234" style="mask-type:luminance" maskUnits="userSpaceOnUse" x="0" y="0" width="476" height="161">
<path d="M458.981 0.00123047C464.612 1.69071 470.286 3.44204 476 5.25273V5.03258C470.532 3.29981 465.1 1.62269 459.708 0.00123047L458.981 0.00123047ZM421.368 0.00123047C439.114 4.42778 457.32 9.39852 476 15.0223V14.8022C457.621 9.2699 439.704 4.37089 422.228 0L421.368 0V0.00123047ZM370.427 0.00123047C403.775 6.40791 438.904 14.4385 476 25.033V24.8154C439.315 14.3396 404.553 6.37204 371.533 0.00246849L370.427 0.00246849V0.00123047ZM294.032 0.00123047C348.825 7.30212 409.097 17.1805 476 35.2775V35.0599C409.743 17.1422 349.99 7.2811 295.622 0.00123047L294.032 0.00123047ZM186.662 0.00123047C206.075 2.61461 226.299 4.92621 247.422 7.33923C313.851 14.9283 389.163 23.5353 476 45.7447V45.5282C389.174 23.325 313.869 14.7205 247.448 7.13145C226.891 4.78274 207.189 2.53051 188.255 0.00246849L186.662 0.00246849V0.00123047ZM113.431 0.00123047C155.941 10.7714 202.835 15.8275 255.485 21.4921C319.631 28.3935 392.318 36.2188 476 56.4258V56.2093C392.329 36.0085 319.649 28.1844 255.508 21.283C203.21 15.6555 156.593 10.6292 114.313 0L113.431 0V0.00123047ZM74.9051 0.00123047C128.824 21.962 190.333 28.203 263.13 35.567C325.138 41.8401 395.338 48.9456 476 67.3072V67.092C395.348 48.7365 325.155 41.631 263.151 35.3592C190.603 28.0199 129.268 21.7963 75.4886 0.00123047L74.9051 0.00123047ZM51.4772 0.00123047C112.154 34.528 182.969 41.2773 270.447 49.5825C330.429 55.278 398.25 61.7206 476 78.3779V78.1627C398.259 61.5103 330.447 55.0678 270.468 49.3735C183.187 41.0869 112.5 34.3512 51.9236 0L51.4772 0V0.00123047ZM35.7458 0.00123047C100.912 47.8225 178.285 54.7264 277.501 63.5523C335.545 68.7147 401.071 74.5475 475.999 89.6304V89.4165C401.08 74.3385 335.56 68.507 277.52 63.3433C178.475 54.5335 101.209 47.6382 36.1228 0L35.7458 0V0.00123047ZM24.6024 0.00123047C92.9449 61.5486 175.213 68.4092 284.343 77.485C340.519 82.1564 403.82 87.4264 476 101.054V100.84C403.829 87.2162 340.533 81.9474 284.361 77.2759C175.378 68.2113 93.1946 61.373 24.9177 0.00123047L24.6024 0.00123047ZM16.4585 0.00123047C87.1364 75.5469 173.198 82.2467 291.008 91.3892C345.372 95.6079 406.504 100.356 476 112.639V112.425C406.51 100.146 345.386 95.3989 291.025 91.1802C173.372 82.05 87.3998 75.344 16.7886 0.00123047L16.4585 0.00123047ZM10.4003 0.00123047C82.8388 89.7393 171.919 96.1954 297.525 105.269C350.123 109.068 409.129 113.331 476 124.371V124.158C409.136 113.121 350.136 108.859 297.541 105.06C172.092 95.9976 83.0997 89.5179 10.7267 0.00123047L10.4003 0.00123047ZM5.87393 0.00123047C79.6564 104.057 171.181 110.228 303.919 119.131C354.784 122.542 411.708 126.364 476 136.257V136.045C411.714 126.156 354.796 122.334 303.934 118.923C171.344 110.03 79.8976 103.845 6.17319 0.00246849L5.87393 0.00246849V0.00123047ZM2.49869 0.00123047C77.3148 118.472 170.848 124.324 310.209 132.977C359.37 136.029 414.24 139.439 476 148.274V148.062C414.246 139.23 359.381 135.82 310.222 132.768C171.008 124.124 77.5509 118.251 2.78796 0.00123047L2.49869 0.00123047ZM0 0.00123047C75.616 132.988 170.821 138.472 316.408 146.812C363.888 149.532 416.732 152.562 476 160.423V160.212C416.737 152.353 363.898 149.323 316.42 146.603C170.971 138.271 75.8348 132.782 0.26828 0.00123047L0 0.00123047Z" fill="white"/>
</mask>
<g mask="url(#mask0_1_234)">
<path d="M0 0.00158691L476 0.00158691V160.423L0 160.423V0.00158691Z" fill="white"/>
</g>
</svg>
