<?xml version="1.0" standalone="no"?>
<!DOCTYPE svg PUBLIC "-//W3C//DTD SVG 20010904//EN"
 "http://www.w3.org/TR/2001/REC-SVG-20010904/DTD/svg10.dtd">
<svg version="1.0" xmlns="http://www.w3.org/2000/svg"
 width="500.000000pt" height="500.000000pt" viewBox="0 0 500.000000 500.000000"
 preserveAspectRatio="xMidYMid meet">
<metadata>
Created by potrace 1.14, written by Peter Selinger 2001-2017
</metadata>
<g transform="translate(0.000000,500.000000) scale(0.100000,-0.100000)"
fill="#000000" stroke="none">
<path d="M1210 4839 c-6 -9 -11 -26 -13 -36 -2 -10 -9 -36 -15 -58 -6 -22 -13
-51 -16 -65 -2 -14 -25 -106 -51 -205 -25 -99 -59 -234 -76 -300 -16 -66 -33
-133 -38 -150 -8 -25 -94 -362 -106 -415 -1 -8 -31 -125 -65 -260 -34 -135
-64 -254 -67 -265 -7 -32 -9 -39 -16 -60 -3 -11 -8 -31 -11 -45 -2 -14 -32
-133 -66 -265 -57 -222 -147 -580 -155 -615 -2 -8 -22 -87 -45 -175 -23 -88
-45 -176 -50 -195 -11 -47 -11 -48 -65 -260 -26 -102 -48 -193 -50 -203 -3
-10 -7 -27 -10 -37 -3 -10 -8 -28 -10 -40 -2 -11 -13 -54 -24 -94 -11 -40 -22
-83 -25 -97 -3 -13 -52 -210 -110 -437 l-104 -412 756 2 756 3 63 250 c35 138
66 257 68 266 2 9 36 144 75 300 40 156 74 292 76 302 6 26 11 45 34 137 12
47 23 90 24 95 1 6 5 19 9 30 3 11 8 31 11 45 3 14 12 50 20 80 8 30 17 66 20
80 3 14 12 57 20 96 22 102 28 140 30 218 4 85 -27 235 -59 291 -18 31 -75
184 -80 215 -6 34 -19 77 -27 87 -11 14 -66 10 -143 -12 -33 -9 -75 -20 -94
-25 -49 -12 -249 -4 -306 13 -27 9 -102 31 -165 50 -63 19 -135 37 -159 41
-24 3 -45 7 -47 9 -6 6 46 121 85 186 91 153 215 298 371 432 41 35 86 74 100
87 78 72 286 185 340 185 56 0 97 -27 109 -71 16 -56 15 -58 -45 -118 l-56
-56 -70 7 c-39 3 -93 15 -120 26 -66 26 -79 24 -115 -13 -65 -70 -116 -194
-131 -321 l-9 -68 31 7 c17 3 63 19 101 34 80 32 157 35 215 8 96 -45 99 -45
171 6 90 62 165 96 217 96 45 0 98 -18 122 -41 49 -47 71 -58 98 -48 55 21
195 96 247 132 63 44 80 75 109 195 21 82 17 165 -7 203 -14 22 -15 30 -1 84
14 55 18 61 41 60 25 0 28 6 55 98 34 119 47 146 96 193 46 44 93 69 152 79
89 16 156 0 195 -46 32 -39 33 -99 4 -212 -34 -131 -33 -129 -4 -121 28 7 31
-1 15 -56 -5 -19 -26 -51 -46 -70 -45 -42 -77 -110 -104 -216 -31 -119 -24
-141 67 -219 41 -35 98 -76 126 -90 l50 -25 31 21 c116 76 232 94 304 46 22
-14 53 -43 68 -64 15 -21 31 -42 34 -46 4 -4 43 6 86 24 106 42 189 47 253 15
25 -13 60 -26 76 -30 30 -7 30 -6 54 71 33 105 38 205 16 277 -20 63 -31 67
-108 41 -40 -13 -159 -34 -199 -35 -17 0 -58 65 -58 91 0 6 17 33 38 59 41 54
99 87 165 96 40 5 47 2 131 -63 82 -63 94 -77 165 -193 83 -135 101 -175 125
-266 20 -80 28 -137 31 -214 3 -122 -18 -153 -110 -164 -27 -3 -104 -20 -170
-37 -66 -17 -127 -32 -135 -34 -177 -45 -302 -48 -421 -10 -128 40 -135 38
-208 -52 -35 -43 -98 -114 -140 -158 -85 -89 -182 -208 -240 -295 -33 -49 -95
-165 -97 -180 0 -3 -4 -20 -8 -39 -5 -19 -10 -95 -11 -170 -2 -75 -8 -151 -13
-168 -6 -18 -7 -35 -2 -38 15 -9 375 7 420 20 8 2 40 7 70 10 73 8 227 47 336
86 253 89 491 254 650 451 32 40 61 75 64 78 16 14 113 176 147 245 37 73 110
248 119 285 2 8 19 74 39 145 19 72 37 139 40 150 2 11 21 83 40 160 20 77 52
202 71 279 l35 139 -3 356 c-3 353 -3 356 -27 406 -95 196 -245 332 -456 412
-90 35 -223 69 -304 78 -30 4 -63 9 -75 12 -12 4 -673 7 -1469 8 -1384 2
-1448 2 -1457 -16z"/>
</g>
</svg>
